<svg width="20" height="17" viewBox="0 0 20 17" fill="none" xmlns="http://www.w3.org/2000/svg">
<path d="M18.7703 13.5391L11.9383 1.67421C11.7404 1.33578 11.4573 1.05507 11.1173 0.859985C10.7772 0.664903 10.392 0.562256 10 0.562256C9.60796 0.562256 9.22276 0.664903 8.88271 0.859985C8.54265 1.05507 8.2596 1.33578 8.06172 1.67421L1.22969 13.5391C1.03767 13.8675 0.936474 14.2411 0.936474 14.6215C0.936474 15.0019 1.03767 15.3755 1.22969 15.7039C1.42538 16.044 1.70804 16.3259 2.04866 16.5208C2.38928 16.7156 2.77559 16.8163 3.16797 16.8125H16.832C17.2241 16.816 17.6101 16.7152 17.9505 16.5204C18.2908 16.3256 18.5732 16.0438 18.7687 15.7039C18.961 15.3756 19.0625 15.0021 19.0627 14.6217C19.063 14.2413 18.9621 13.8676 18.7703 13.5391ZM17.1453 14.7656C17.1135 14.8198 17.0677 14.8643 17.0127 14.8946C16.9577 14.9248 16.8956 14.9397 16.8328 14.9375H3.16797C3.10523 14.9397 3.04307 14.9248 2.98806 14.8946C2.93305 14.8643 2.88724 14.8198 2.85547 14.7656C2.82852 14.7218 2.81425 14.6714 2.81425 14.6199C2.81425 14.5685 2.82852 14.518 2.85547 14.4742L9.6875 2.60937C9.72133 2.5573 9.76764 2.5145 9.82221 2.48488C9.87679 2.45525 9.9379 2.43973 10 2.43973C10.0621 2.43973 10.1232 2.45525 10.1778 2.48488C10.2324 2.5145 10.2787 2.5573 10.3125 2.60937L17.1437 14.4742C17.1709 14.5179 17.1855 14.5683 17.1857 14.6197C17.186 14.6711 17.172 14.7217 17.1453 14.7656ZM9.0625 9.625V7.125C9.0625 6.87635 9.16127 6.6379 9.33709 6.46208C9.5129 6.28627 9.75136 6.18749 10 6.18749C10.2486 6.18749 10.4871 6.28627 10.6629 6.46208C10.8387 6.6379 10.9375 6.87635 10.9375 7.125V9.625C10.9375 9.87364 10.8387 10.1121 10.6629 10.2879C10.4871 10.4637 10.2486 10.5625 10 10.5625C9.75136 10.5625 9.5129 10.4637 9.33709 10.2879C9.16127 10.1121 9.0625 9.87364 9.0625 9.625ZM11.25 12.75C11.25 12.9972 11.1767 13.2389 11.0393 13.4445C10.902 13.65 10.7068 13.8102 10.4784 13.9048C10.2499 13.9995 9.99861 14.0242 9.75614 13.976C9.51366 13.9277 9.29093 13.8087 9.11612 13.6339C8.9413 13.4591 8.82225 13.2363 8.77402 12.9939C8.72579 12.7514 8.75054 12.5 8.84515 12.2716C8.93976 12.0432 9.09997 11.848 9.30554 11.7107C9.5111 11.5733 9.75277 11.5 10 11.5C10.3315 11.5 10.6495 11.6317 10.8839 11.8661C11.1183 12.1005 11.25 12.4185 11.25 12.75Z" fill="#EE7738"/>
</svg>
