<svg width="15" height="15" viewBox="0 0 15 15" fill="none" xmlns="http://www.w3.org/2000/svg">
<g clip-path="url(#clip0_445_1229)">
<path d="M7.50004 0.833313C6.1815 0.833313 4.89257 1.22431 3.79624 1.95685C2.69991 2.68939 1.84543 3.73058 1.34085 4.94876C0.836263 6.16693 0.70424 7.50738 0.961475 8.80058C1.21871 10.0938 1.85365 11.2817 2.786 12.214C3.71835 13.1464 4.90624 13.7813 6.19944 14.0385C7.49265 14.2958 8.83309 14.1638 10.0513 13.6592C11.2694 13.1546 12.3106 12.3001 13.0432 11.2038C13.7757 10.1075 14.1667 8.81852 14.1667 7.49998C14.1667 5.73187 13.4643 4.03618 12.2141 2.78593C10.9638 1.53569 9.26815 0.833313 7.50004 0.833313ZM7.50004 13.3333C6.34632 13.3333 5.2185 12.9912 4.25922 12.3502C3.29993 11.7092 2.55226 10.7982 2.11075 9.7323C1.66924 8.6664 1.55372 7.49351 1.7788 6.36195C2.00388 5.2304 2.55945 4.191 3.37525 3.37519C4.19106 2.55938 5.23046 2.00381 6.36202 1.77873C7.49357 1.55365 8.66646 1.66917 9.73236 2.11068C10.7983 2.55219 11.7093 3.29987 12.3503 4.25915C12.9913 5.21844 13.3334 6.34626 13.3334 7.49998C13.3334 9.04708 12.7188 10.5308 11.6248 11.6248C10.5309 12.7187 9.04714 13.3333 7.50004 13.3333Z" fill="#339131"/>
<path d="M11.6667 5.0417C11.5887 4.96409 11.4831 4.92053 11.373 4.92053C11.2629 4.92053 11.1573 4.96409 11.0792 5.0417L6.45422 9.64586L3.95422 7.14586C3.87797 7.06353 3.77214 7.01487 3.66001 7.01057C3.54788 7.00627 3.43863 7.0467 3.3563 7.12295C3.27398 7.1992 3.22531 7.30503 3.22101 7.41716C3.21672 7.52929 3.25714 7.63854 3.33339 7.72086L6.45422 10.8334L11.6667 5.63336C11.7058 5.59463 11.7368 5.54854 11.7579 5.49777C11.7791 5.44699 11.79 5.39253 11.79 5.33753C11.79 5.28252 11.7791 5.22806 11.7579 5.17729C11.7368 5.12651 11.7058 5.08043 11.6667 5.0417Z" fill="#339131"/>
</g>
<defs>
<clipPath id="clip0_445_1229">
<rect width="15" height="15" fill="white"/>
</clipPath>
</defs>
</svg>
