<svg width="18" height="17" viewBox="0 0 18 17" fill="none" xmlns="http://www.w3.org/2000/svg">
<path d="M17.399 5.99999H12.392L10.58 7.81199C10.3577 8.03526 10.0934 8.21227 9.80227 8.33276C9.51116 8.45325 9.19906 8.51485 8.884 8.51399C8.242 8.51399 7.64 8.26399 7.186 7.81099C6.9628 7.58881 6.78577 7.32465 6.66512 7.03374C6.54446 6.74283 6.48257 6.43093 6.483 6.11599C6.483 6.07699 6.493 6.03899 6.494 5.99999H0.6C0.44087 5.99999 0.288258 6.0632 0.175736 6.17573C0.0632141 6.28825 0 6.44086 0 6.59999V8.99999H18V6.59999C18 6.52111 17.9844 6.44301 17.9542 6.37015C17.924 6.29729 17.8797 6.2311 17.8239 6.17537C17.7681 6.11964 17.7018 6.07547 17.6289 6.04537C17.556 6.01528 17.4779 5.99986 17.399 5.99999ZM9.768 6.99899L14.823 1.94399C14.8789 1.8884 14.9233 1.82233 14.9537 1.74956C14.9841 1.67679 14.9998 1.59875 15 1.5199C15.0002 1.44105 14.9848 1.36294 14.9548 1.29003C14.9248 1.21712 14.8807 1.15084 14.825 1.09499L13.905 0.17499C13.792 0.0627502 13.6392 -0.000244141 13.48 -0.000244141C13.3208 -0.000244141 13.168 0.0627502 13.055 0.17499L8 5.23099C7.76555 5.46544 7.63383 5.78342 7.63383 6.11499C7.63383 6.44655 7.76555 6.76454 8 6.99899C8.23445 7.23344 8.55244 7.36515 8.884 7.36515C9.21556 7.36515 9.53355 7.23344 9.768 6.99899ZM2.823 16.271C2.92 16.672 3.338 17 3.75 17H14.25C14.662 17 15.08 16.672 15.177 16.271L16.7 9.99999H1.3L2.823 16.271Z" fill="#2C3D4F"/>
</svg>
