<svg width="20" height="20" viewBox="0 0 20 20" fill="none" xmlns="http://www.w3.org/2000/svg">
<path d="M0.625 0C0.79076 0 0.949732 0.065848 1.06694 0.183058C1.18415 0.300269 1.25 0.45924 1.25 0.625V19.375C1.25 19.5408 1.18415 19.6997 1.06694 19.8169C0.949732 19.9342 0.79076 20 0.625 20C0.45924 20 0.300269 19.9342 0.183058 19.8169C0.065848 19.6997 0 19.5408 0 19.375V0.625C0 0.45924 0.065848 0.300269 0.183058 0.183058C0.300269 0.065848 0.45924 0 0.625 0ZM2.5 1.875C2.5 1.70924 2.56585 1.55027 2.68306 1.43306C2.80027 1.31585 2.95924 1.25 3.125 1.25H8.125C8.29076 1.25 8.44973 1.31585 8.56694 1.43306C8.68415 1.55027 8.75 1.70924 8.75 1.875V3.125C8.75 3.29076 8.68415 3.44973 8.56694 3.56694C8.44973 3.68415 8.29076 3.75 8.125 3.75H3.125C2.95924 3.75 2.80027 3.68415 2.68306 3.56694C2.56585 3.44973 2.5 3.29076 2.5 3.125V1.875ZM5 6.875C5 6.70924 5.06585 6.55027 5.18306 6.43306C5.30027 6.31585 5.45924 6.25 5.625 6.25H14.375C14.5408 6.25 14.6997 6.31585 14.8169 6.43306C14.9342 6.55027 15 6.70924 15 6.875V8.125C15 8.29076 14.9342 8.44973 14.8169 8.56694C14.6997 8.68415 14.5408 8.75 14.375 8.75H5.625C5.45924 8.75 5.30027 8.68415 5.18306 8.56694C5.06585 8.44973 5 8.29076 5 8.125V6.875ZM7.5 11.875C7.5 11.7092 7.56585 11.5503 7.68306 11.4331C7.80027 11.3158 7.95924 11.25 8.125 11.25H15.625C15.7908 11.25 15.9497 11.3158 16.0669 11.4331C16.1842 11.5503 16.25 11.7092 16.25 11.875V13.125C16.25 13.2908 16.1842 13.4497 16.0669 13.5669C15.9497 13.6842 15.7908 13.75 15.625 13.75H8.125C7.95924 13.75 7.80027 13.6842 7.68306 13.5669C7.56585 13.4497 7.5 13.2908 7.5 13.125V11.875ZM10 16.875C10 16.7092 10.0658 16.5503 10.1831 16.4331C10.3003 16.3158 10.4592 16.25 10.625 16.25H19.375C19.5408 16.25 19.6997 16.3158 19.8169 16.4331C19.9342 16.5503 20 16.7092 20 16.875V18.125C20 18.2908 19.9342 18.4497 19.8169 18.5669C19.6997 18.6842 19.5408 18.75 19.375 18.75H10.625C10.4592 18.75 10.3003 18.6842 10.1831 18.5669C10.0658 18.4497 10 18.2908 10 18.125V16.875Z" fill="#FBFBFB"/>
</svg>
