<svg width="26" height="26" viewBox="0 0 26 26" fill="none" xmlns="http://www.w3.org/2000/svg">
<g filter="url(#filter0_dd_187_2397)">
<path d="M13 2C7.42857 2 3 6.42857 3 12C3 17.5714 7.42857 22 13 22C18.5714 22 23 17.5714 23 12C23 6.42857 18.5714 2 13 2ZM13 20.5714C8.28571 20.5714 4.42857 16.7143 4.42857 12C4.42857 7.28571 8.28571 3.42857 13 3.42857C17.7143 3.42857 21.5714 7.28571 21.5714 12C21.5714 16.7143 17.7143 20.5714 13 20.5714Z" fill="black"/>
<path d="M16.8571 17L13 13.1429L9.14286 17L8 15.8571L11.8571 12L8 8.14286L9.14286 7L13 10.8571L16.8571 7L18 8.14286L14.1429 12L18 15.8571L16.8571 17Z" fill="black"/>
</g>
<defs>
<filter id="filter0_dd_187_2397" x="0" y="0" width="26" height="26" filterUnits="userSpaceOnUse" color-interpolation-filters="sRGB">
<feFlood flood-opacity="0" result="BackgroundImageFix"/>
<feColorMatrix in="SourceAlpha" type="matrix" values="0 0 0 0 0 0 0 0 0 0 0 0 0 0 0 0 0 0 127 0" result="hardAlpha"/>
<feOffset dy="1"/>
<feGaussianBlur stdDeviation="1"/>
<feColorMatrix type="matrix" values="0 0 0 0 0 0 0 0 0 0 0 0 0 0 0 0 0 0 0.06 0"/>
<feBlend mode="normal" in2="BackgroundImageFix" result="effect1_dropShadow_187_2397"/>
<feColorMatrix in="SourceAlpha" type="matrix" values="0 0 0 0 0 0 0 0 0 0 0 0 0 0 0 0 0 0 127 0" result="hardAlpha"/>
<feOffset dy="1"/>
<feGaussianBlur stdDeviation="1.5"/>
<feColorMatrix type="matrix" values="0 0 0 0 0 0 0 0 0 0 0 0 0 0 0 0 0 0 0.1 0"/>
<feBlend mode="normal" in2="effect1_dropShadow_187_2397" result="effect2_dropShadow_187_2397"/>
<feBlend mode="normal" in="SourceGraphic" in2="effect2_dropShadow_187_2397" result="shape"/>
</filter>
</defs>
</svg>
