<svg width="14" height="15" viewBox="0 0 14 15" fill="none" xmlns="http://www.w3.org/2000/svg">
<path d="M6.66667 10.8333C6.85556 10.8333 7.014 10.7693 7.142 10.6413C7.27 10.5133 7.33378 10.3551 7.33333 10.1667C7.33333 9.97779 7.26933 9.81934 7.14133 9.69134C7.01333 9.56334 6.85511 9.49957 6.66667 9.50001C6.47778 9.50001 6.31933 9.56401 6.19133 9.69201C6.06333 9.82001 5.99956 9.97823 6 10.1667C6 10.3556 6.064 10.514 6.192 10.642C6.32 10.77 6.47822 10.8338 6.66667 10.8333ZM6 8.16668H7.33333V4.16668H6V8.16668ZM6.66667 14.1667C5.74444 14.1667 4.87778 13.9916 4.06667 13.6413C3.25556 13.2911 2.55 12.8162 1.95 12.2167C1.35 11.6167 0.875111 10.9111 0.525333 10.1C0.175556 9.2889 0.000444444 8.42223 0 7.50001C0 6.57779 0.175111 5.71112 0.525333 4.90001C0.875556 4.0889 1.35044 3.38334 1.95 2.78334C2.55 2.18334 3.25556 1.70845 4.06667 1.35868C4.87778 1.0089 5.74444 0.833788 6.66667 0.833344C7.58889 0.833344 8.45556 1.00845 9.26667 1.35868C10.0778 1.7089 10.7833 2.18379 11.3833 2.78334C11.9833 3.38334 12.4584 4.0889 12.8087 4.90001C13.1589 5.71112 13.3338 6.57779 13.3333 7.50001C13.3333 8.42223 13.1582 9.2889 12.808 10.1C12.4578 10.9111 11.9829 11.6167 11.3833 12.2167C10.7833 12.8167 10.0778 13.2918 9.26667 13.642C8.45556 13.9922 7.58889 14.1671 6.66667 14.1667ZM6.66667 12.8333C8.15556 12.8333 9.41667 12.3167 10.45 11.2833C11.4833 10.25 12 8.9889 12 7.50001C12 6.01112 11.4833 4.75001 10.45 3.71668C9.41667 2.68334 8.15556 2.16668 6.66667 2.16668C5.17778 2.16668 3.91667 2.68334 2.88333 3.71668C1.85 4.75001 1.33333 6.01112 1.33333 7.50001C1.33333 8.9889 1.85 10.25 2.88333 11.2833C3.91667 12.3167 5.17778 12.8333 6.66667 12.8333Z" fill="#EF2F2A"/>
</svg>
