<svg width="20" height="20" viewBox="0 0 20 20" fill="none" xmlns="http://www.w3.org/2000/svg">
<path d="M10 0C4.48556 0 0 4.48667 0 10C0 15.5133 4.48556 20 10 20C15.5144 20 20 15.5133 20 10C20 4.48667 15.5144 0 10 0ZM10 17.7778C5.71222 17.7778 2.22222 14.2889 2.22222 10C2.22222 5.71111 5.71222 2.22222 10 2.22222C14.2878 2.22222 17.7778 5.71111 17.7778 10C17.7778 14.2889 14.2878 17.7778 10 17.7778ZM10.7856 10L13.7256 7.06C13.8292 6.95553 13.8873 6.81436 13.8873 6.66722C13.8873 6.52009 13.8292 6.37891 13.7256 6.27445C13.6211 6.17084 13.4799 6.1127 13.3328 6.1127C13.1856 6.1127 13.0445 6.17084 12.94 6.27445L10 9.21445L7.06 6.27333C6.95522 6.17213 6.81489 6.11614 6.66922 6.1174C6.52356 6.11867 6.38422 6.1771 6.28121 6.2801C6.17821 6.38311 6.11978 6.52245 6.11852 6.66811C6.11725 6.81378 6.17325 6.95411 6.27445 7.05889L9.21445 10L6.27445 12.94C6.17013 13.0442 6.11146 13.1855 6.11136 13.3329C6.11125 13.4804 6.16972 13.6218 6.27389 13.7261C6.37806 13.8304 6.51941 13.8891 6.66683 13.8892C6.81425 13.8893 6.95568 13.8308 7.06 13.7267L10 10.7856L12.94 13.7256C12.9912 13.7787 13.0524 13.8211 13.1202 13.8503C13.1879 13.8795 13.2608 13.8949 13.3345 13.8957C13.4083 13.8964 13.4815 13.8825 13.5498 13.8546C13.6181 13.8268 13.6802 13.7856 13.7324 13.7335C13.7846 13.6815 13.826 13.6195 13.854 13.5513C13.882 13.483 13.8962 13.4099 13.8957 13.3361C13.8951 13.2624 13.8799 13.1894 13.8509 13.1216C13.8219 13.0538 13.7797 12.9924 13.7267 12.9411L10.7856 10Z" fill="#EF2F2A"/>
</svg>
