<svg width="20" height="20" viewBox="0 0 20 20" fill="none" xmlns="http://www.w3.org/2000/svg">
<path d="M13.3333 0C13.0386 0 12.756 0.117063 12.5477 0.325437C12.3393 0.533811 12.2222 0.816426 12.2222 1.11111C12.2222 1.4058 12.3393 1.68841 12.5477 1.89679C12.756 2.10516 13.0386 2.22222 13.3333 2.22222H16.1111C16.5531 2.22222 16.9771 2.39782 17.2896 2.71038C17.6022 3.02294 17.7778 3.44686 17.7778 3.88889V16.1111C17.7778 16.5531 17.6022 16.9771 17.2896 17.2896C16.9771 17.6022 16.5531 17.7778 16.1111 17.7778H13.3333C13.0386 17.7778 12.756 17.8948 12.5477 18.1032C12.3393 18.3116 12.2222 18.5942 12.2222 18.8889C12.2222 19.1836 12.3393 19.4662 12.5477 19.6746C12.756 19.8829 13.0386 20 13.3333 20H16.1111C17.1425 20 18.1317 19.5903 18.861 18.861C19.5903 18.1317 20 17.1425 20 16.1111V3.88889C20 2.85749 19.5903 1.86834 18.861 1.13903C18.1317 0.409721 17.1425 0 16.1111 0H13.3333ZM2.22222 3.88889C2.22222 3.44686 2.39782 3.02294 2.71038 2.71038C3.02294 2.39782 3.44686 2.22222 3.88889 2.22222H6.66667C6.96135 2.22222 7.24397 2.10516 7.45234 1.89679C7.66071 1.68841 7.77778 1.4058 7.77778 1.11111C7.77778 0.816426 7.66071 0.533811 7.45234 0.325437C7.24397 0.117063 6.96135 0 6.66667 0H3.88889C2.85749 0 1.86834 0.409721 1.13903 1.13903C0.409721 1.86834 0 2.85749 0 3.88889V16.1111C0 17.1425 0.409721 18.1317 1.13903 18.861C1.86834 19.5903 2.85749 20 3.88889 20H6.66667C6.96135 20 7.24397 19.8829 7.45234 19.6746C7.66071 19.4662 7.77778 19.1836 7.77778 18.8889C7.77778 18.5942 7.66071 18.3116 7.45234 18.1032C7.24397 17.8948 6.96135 17.7778 6.66667 17.7778H3.88889C3.44686 17.7778 3.02294 17.6022 2.71038 17.2896C2.39782 16.9771 2.22222 16.5531 2.22222 16.1111V3.88889ZM10.5556 4.44444C10.5556 4.14976 10.4385 3.86714 10.2301 3.65877C10.0217 3.4504 9.73913 3.33333 9.44444 3.33333C9.14976 3.33333 8.86714 3.4504 8.65877 3.65877C8.4504 3.86714 8.33333 4.14976 8.33333 4.44444V11.1111C8.33333 11.4058 8.4504 11.6884 8.65877 11.8968C8.86714 12.1052 9.14976 12.2222 9.44444 12.2222H14.4411C14.7358 12.2222 15.0184 12.1052 15.2268 11.8968C15.4352 11.6884 15.5522 11.4058 15.5522 11.1111C15.5522 10.8164 15.4352 10.5338 15.2268 10.3254C15.0184 10.1171 14.7358 10 14.4411 10H10.5556V4.44444Z" fill="#FBFBFB"/>
</svg>
