<svg width="25" height="25" viewBox="0 0 25 25" fill="none" xmlns="http://www.w3.org/2000/svg">
<path d="M12.5 25C13.6545 25 14.7613 24.8524 15.8203 24.5573C16.8793 24.2622 17.8776 23.8455 18.8151 23.3073C19.7526 22.7691 20.5946 22.1181 21.3411 21.3542C22.0877 20.5903 22.7387 19.7439 23.2943 18.8151C23.8498 17.8863 24.2708 16.8924 24.5573 15.8333C24.8437 14.7743 24.9913 13.6632 25 12.5C25 11.3455 24.8524 10.2387 24.5573 9.17969C24.2622 8.12066 23.8455 7.1224 23.3073 6.1849C22.7691 5.2474 22.1181 4.40538 21.3542 3.65885C20.5903 2.91233 19.7439 2.26129 18.8151 1.70573C17.8863 1.15017 16.8924 0.729167 15.8333 0.442709C14.7743 0.156251 13.6632 0.00868115 12.5 5.96046e-07C11.3455 5.96046e-07 10.2387 0.14757 9.17969 0.442709C8.12066 0.737848 7.1224 1.15451 6.1849 1.69271C5.2474 2.2309 4.40538 2.88194 3.65885 3.64583C2.91233 4.40972 2.26128 5.25608 1.70573 6.1849C1.15017 7.11372 0.729167 8.10764 0.442708 9.16667C0.15625 10.2257 0.00868056 11.3368 0 12.5C0 13.6545 0.147569 14.7613 0.442708 15.8203C0.737847 16.8793 1.15451 17.8776 1.69271 18.8151C2.2309 19.7526 2.88194 20.5946 3.64583 21.3411C4.40972 22.0877 5.25608 22.7387 6.1849 23.2943C7.11372 23.8498 8.10764 24.2708 9.16667 24.5573C10.2257 24.8438 11.3368 24.9913 12.5 25ZM12.5 1.66667C13.4983 1.66667 14.4575 1.79688 15.3776 2.05729C16.2977 2.31771 17.1571 2.68229 17.9557 3.15104C18.7543 3.61979 19.4878 4.18403 20.1562 4.84375C20.8247 5.50347 21.3889 6.23264 21.849 7.03125C22.309 7.82986 22.6736 8.69358 22.9427 9.6224C23.2118 10.5512 23.342 11.5104 23.3333 12.5C23.3333 13.4983 23.2031 14.4575 22.9427 15.3776C22.6823 16.2977 22.3177 17.1571 21.849 17.9557C21.3802 18.7543 20.816 19.4878 20.1562 20.1563C19.4965 20.8247 18.7674 21.3889 17.9687 21.849C17.1701 22.309 16.3064 22.6736 15.3776 22.9427C14.4488 23.2118 13.4896 23.342 12.5 23.3333C11.5017 23.3333 10.5425 23.2031 9.6224 22.9427C8.70226 22.6823 7.84288 22.3177 7.04427 21.849C6.24566 21.3802 5.51215 20.816 4.84375 20.1563C4.17535 19.4965 3.61111 18.7674 3.15104 17.9688C2.69097 17.1701 2.32639 16.3064 2.05729 15.3776C1.78819 14.4488 1.65799 13.4896 1.66667 12.5C1.66667 11.5017 1.79687 10.5425 2.05729 9.6224C2.31771 8.70226 2.68229 7.84288 3.15104 7.04427C3.61979 6.24566 4.18403 5.51215 4.84375 4.84375C5.50347 4.17535 6.23264 3.61111 7.03125 3.15104C7.82986 2.69097 8.69358 2.32639 9.6224 2.05729C10.5512 1.7882 11.5104 1.65799 12.5 1.66667ZM9.46615 13.3333H18.3333V11.6667H9.46615L13.0859 8.09896L11.9141 6.90104L6.26302 12.5L11.9141 18.099L13.0859 16.901L9.46615 13.3333Z" fill="#FBFBFB"/>
</svg>
