<svg width="20" height="16" viewBox="0 0 20 16" fill="none" xmlns="http://www.w3.org/2000/svg">
<path d="M8.9 3.60005C8.9 4.47526 8.55232 5.31463 7.93345 5.9335C7.31458 6.55237 6.47521 6.90005 5.6 6.90005C4.72479 6.90005 3.88542 6.55237 3.26655 5.9335C2.64768 5.31463 2.3 4.47526 2.3 3.60005C2.3 2.72483 2.64768 1.88547 3.26655 1.2666C3.88542 0.647727 4.72479 0.300049 5.6 0.300049C6.47521 0.300049 7.31458 0.647727 7.93345 1.2666C8.55232 1.88547 8.9 2.72483 8.9 3.60005ZM17.7 3.60005C17.7 4.03341 17.6146 4.46253 17.4488 4.8629C17.283 5.26328 17.0399 5.62707 16.7335 5.9335C16.427 6.23994 16.0632 6.48301 15.6629 6.64885C15.2625 6.81469 14.8334 6.90005 14.4 6.90005C13.9666 6.90005 13.5375 6.81469 13.1371 6.64885C12.7368 6.48301 12.373 6.23994 12.0665 5.9335C11.7601 5.62707 11.517 5.26328 11.3512 4.8629C11.1854 4.46253 11.1 4.03341 11.1 3.60005C11.1 2.72483 11.4477 1.88547 12.0665 1.2666C12.6854 0.647727 13.5248 0.300049 14.4 0.300049C15.2752 0.300049 16.1146 0.647727 16.7335 1.2666C17.3523 1.88547 17.7 2.72483 17.7 3.60005ZM13.223 15.7C13.2736 15.3403 13.3 14.974 13.3 14.6C13.3025 12.8718 12.7211 11.1934 11.65 9.83705C12.4861 9.35433 13.4345 9.10019 14.4 9.10019C15.3654 9.10018 16.3138 9.35431 17.1499 9.83701C17.986 10.3197 18.6804 11.014 19.1631 11.8501C19.6458 12.6862 19.9 13.6346 19.9 14.6V15.7H13.223ZM5.6 9.10005C7.05869 9.10005 8.45764 9.67951 9.48909 10.711C10.5205 11.7424 11.1 13.1414 11.1 14.6V15.7H0.1V14.6C0.1 13.1414 0.679463 11.7424 1.71091 10.711C2.74236 9.67951 4.14131 9.10005 5.6 9.10005Z" fill="#FBFBFB"/>
</svg>
