<svg width="24" height="23" viewBox="0 0 24 23" fill="none" xmlns="http://www.w3.org/2000/svg">
<path d="M12 5.8125C11.0482 5.8125 10.1178 6.09475 9.32635 6.62355C8.53494 7.15236 7.91811 7.90396 7.55386 8.78333C7.18962 9.6627 7.09431 10.6303 7.28 11.5639C7.4657 12.4974 7.92404 13.3549 8.59708 14.028C9.27012 14.701 10.1276 15.1593 11.0612 15.345C11.9947 15.5307 12.9623 15.4354 13.8417 15.0712C14.7211 14.7069 15.4727 14.0901 16.0015 13.2987C16.5303 12.5073 16.8125 11.5768 16.8125 10.625C16.8125 9.34864 16.3055 8.12456 15.403 7.22205C14.5005 6.31953 13.2764 5.8125 12 5.8125ZM6.75003 4.5L5.00003 4.5L5.00003 6.25C5.00003 6.48206 4.90785 6.70462 4.74375 6.86872C4.57966 7.03281 4.3571 7.125 4.12503 7.125C3.89297 7.125 3.67041 7.03281 3.50631 6.86872C3.34222 6.70462 3.25003 6.48206 3.25003 6.25L3.25003 4.5L1.50003 4.5C1.26797 4.5 1.04541 4.40781 0.881314 4.24372C0.71722 4.07962 0.625033 3.85706 0.625033 3.625C0.625033 3.39293 0.71722 3.17038 0.881314 3.00628C1.04541 2.84219 1.26797 2.75 1.50003 2.75L3.25003 2.75L3.25003 0.999999C3.25003 0.767934 3.34222 0.545375 3.50631 0.38128C3.67041 0.217186 3.89297 0.124999 4.12503 0.124999C4.3571 0.124999 4.57966 0.217186 4.74375 0.38128C4.90785 0.545375 5.00003 0.767934 5.00003 0.999999L5.00003 2.75L6.75003 2.75C6.9821 2.75 7.20466 2.84219 7.36875 3.00628C7.53285 3.17037 7.62503 3.39293 7.62503 3.625C7.62503 3.85706 7.53285 4.07962 7.36875 4.24372C7.20466 4.40781 6.9821 4.5 6.75003 4.5ZM1.78988 8.88703C2.01875 8.92533 2.22303 9.05297 2.35779 9.24189C2.49255 9.4308 2.54675 9.6655 2.50847 9.89437C2.41963 10.425 2.37499 10.962 2.37503 11.5C2.37296 13.8561 3.23893 16.1305 4.80753 17.8886C5.444 16.9662 6.25202 16.1749 7.18753 15.5578C7.26742 15.5049 7.36249 15.4796 7.45813 15.4859C7.55377 15.4922 7.64469 15.5298 7.71691 15.5928C8.90573 16.6215 10.4252 17.1876 11.9973 17.1876C13.5694 17.1876 15.0889 16.6214 16.2777 15.5928C16.3503 15.5285 16.4423 15.4902 16.5391 15.4838C16.6359 15.4775 16.7321 15.5035 16.8125 15.5578C17.7495 16.1742 18.5587 16.9656 19.1958 17.8886C20.4268 16.5015 21.2308 14.7883 21.5111 12.955C21.7915 11.1218 21.5363 9.24657 20.7761 7.55495C20.016 5.86333 18.7833 4.42734 17.2264 3.41968C15.6695 2.41203 13.8546 1.87563 12 1.875C11.4621 1.87491 10.925 1.91955 10.3944 2.00844C10.1666 2.04439 9.93375 1.98892 9.74659 1.8541C9.55944 1.71927 9.43309 1.51601 9.39503 1.28851C9.35697 1.06101 9.41027 0.827688 9.54335 0.639291C9.67643 0.450895 9.87852 0.322666 10.1057 0.282498C12.4819 -0.117251 14.9237 0.24852 17.0785 1.327C19.2333 2.40548 20.9896 4.14086 22.0938 6.28259C23.1981 8.42431 23.5931 10.8615 23.2218 13.2424C22.8506 15.6233 21.7323 17.8245 20.0284 19.5284C18.3246 21.2323 16.1233 22.3505 13.7424 22.7218C11.3616 23.093 8.92435 22.698 6.78262 21.5938C4.6409 20.4896 2.90552 18.7333 1.82704 16.5785C0.748557 14.4237 0.382785 11.9819 0.782534 9.60562C0.820834 9.37676 0.948477 9.17247 1.13739 9.03771C1.3263 8.90295 1.561 8.84875 1.78988 8.88703Z" fill="#7A4579"/>
</svg>
